<?xml version="1.0" encoding="utf-8"?>
<!-- Generator: Adobe Illustrator 23.1.0, SVG Export Plug-In . SVG Version: 6.00 Build 0)  -->
<svg version="1.1" id="Layer_1" xmlns="http://www.w3.org/2000/svg" xmlns:xlink="http://www.w3.org/1999/xlink" x="0px" y="0px"
	 viewBox="0 0 800 800" style="enable-background:new 0 0 800 800;" xml:space="preserve">
<style type="text/css">
	.st0{fill:#FF6D1F;}
</style>
<g>
	<path class="st0" d="M438.3,153L438.3,153L438.3,153 M400,215.4c2.4,4.4,5,8.9,7.5,13.5l10.9,19.6c15.1,27.1,28.2,50.5,54.2,70.3
		c26.6,20.2,52.6,26.1,82.7,32.9l21.2,4.8c7.9,1.8,15.4,3.5,22.6,5.1c-5.6,6.6-11.5,13.6-17.8,20.9l-14.5,16.9
		c-20,23.3-37.2,43.5-46.9,74.7c-9.5,30.7-7,57.3-4,88l2.2,22.6c0.8,7.9,1.5,15.5,2.2,22.7c-4.6-2.1-9.4-4.3-14.4-6.6l-19.9-9.1
		l-0.1,0c-28.2-13-52.6-24.2-86-24.2s-57.8,11.2-86,24.2l-0.1,0l-19.9,9.1c-4.9,2.3-9.7,4.5-14.4,6.6c0.7-7.2,1.4-14.8,2.2-22.7
		l2.2-22.6c3-30.7,5.5-57.2-4-88c-9.7-31.2-26.9-51.3-46.9-74.7l-14.5-16.9c-6.3-7.4-12.3-14.4-17.8-20.9c7.1-1.6,14.7-3.3,22.6-5.1
		l21.2-4.8l0.1,0c30.1-6.8,56-12.7,82.6-32.9c26-19.8,39.1-43.2,54.2-70.3l10.9-19.6C395,224.3,397.6,219.8,400,215.4 M400,66.7
		c-31.6,0-52.7,37.9-94.9,113.6l-10.9,19.6c-12,21.5-18,32.3-27.4,39.4c-9.4,7.1-21,9.7-44.3,15l-21.2,4.8
		c-82,18.5-123,27.8-132.7,59.2c-9.8,31.4,18.2,64,74.1,129.4l14.5,16.9c15.9,18.6,23.8,27.9,27.4,39.3c3.6,11.5,2.4,23.9,0,48.7
		l-2.2,22.6c-8.5,87.2-12.7,130.8,12.9,150.2c7.2,5.5,15.4,8,25.3,8c25,0,60.3-16.3,115.4-41.6l19.9-9.1
		c21.8-10,32.7-15.1,44.3-15.1s22.5,5,44.3,15.1l19.9,9.1c55.1,25.4,90.4,41.6,115.4,41.6c9.8,0,18.1-2.5,25.3-8
		c25.5-19.4,21.3-63,12.9-150.2l-2.2-22.6c-2.4-24.8-3.6-37.2,0-48.7c3.6-11.5,11.5-20.8,27.4-39.3l14.5-16.9
		c55.9-65.4,83.8-98,74.1-129.4c-9.8-31.4-50.8-40.6-132.7-59.2l-21.2-4.8c-23.3-5.3-34.9-7.9-44.3-15c-9.4-7.1-15.4-17.9-27.4-39.4
		l-10.9-19.6C452.7,104.5,431.6,66.7,400,66.7L400,66.7z"/>
</g>
</svg>
